<?xml version="1.0" encoding="UTF-8"?>
<svg width="1200pt" height="1200pt" version="1.1" viewBox="0 0 1200 1200" xmlns="http://www.w3.org/2000/svg">
 <path d="m1200 600c0 214.36-114.36 412.44-300 519.62-185.64 107.18-414.36 107.18-600 0-185.64-107.18-300-305.26-300-519.62s114.36-412.44 300-519.62c185.64-107.18 414.36-107.18 600 0 185.64 107.18 300 305.26 300 519.62z" fill="#2562eb"/>
 <path d="m940.07 728.27h-680.14v40.797l41.062 22.906 598.02 0.03125 41.062-22.906zm-680.14-16.324h680.14v-392.8h-680.14zm440.62 168.92-34.922-72.562h-132.31l-34.008 72.562zm-79.199-441.5c11.867 12.367 11.777 31.941-0.20703 44.191s-31.559 12.781-44.164 1.1523l-0.5-0.47266v0.03125c-5.9648-5.9648-9.3281-14.023-9.3281-22.438 0-8.4141 3.3672-16.5 9.3281-22.438 5.9336-5.9648 13.992-9.3008 22.406-9.3008 8.4141 0 16.5 3.3359 22.438 9.3008zm-6.9961 22.438c0.03125 6.168-3.6328 11.75-9.3008 14.199-5.668 2.4492-12.25 1.3008-16.738-2.9531l-0.32422-0.35547v0.03125c-6.0234-6.0234-6.0234-15.793 0-21.844 6.0508-6.0234 15.824-6.0234 21.844 0 2.8945 2.8945 4.5156 6.8203 4.5156 10.922zm78.852 129.15c-3.0391 3.1875-8.0586 3.3945-11.336 0.44141-3.2773-2.9805-3.6016-8-0.70703-11.336 19.277-21.344 29.52-49.328 28.574-78.082-0.97266-28.754-13.078-56-33.742-75.988-20.695-19.984-48.324-31.172-77.074-31.172-28.754 0-56.383 11.188-77.074 31.172-20.664 19.984-32.766 47.23-33.742 75.988-0.97266 28.754 9.2695 56.738 28.574 78.082 2.8633 3.3359 2.5664 8.3555-0.70703 11.336-3.2773 2.9531-8.3242 2.7461-11.336-0.44141-22.141-24.473-33.891-56.562-32.766-89.535 1.0938-32.973 14.969-64.207 38.672-87.141 23.703-22.906 55.41-35.719 88.379-35.719 32.973 0 64.68 12.812 88.379 35.719 23.703 22.938 37.578 54.168 38.672 87.141 1.1211 32.973-10.625 65.062-32.766 89.535zm-105.8-25.062c0.29688-0.85547 0.44141-1.7422 0.44141-2.6289v-32.887c0-4.1328-3.0703-7.6172-7.1719-8.1172l-53.402-11.039v0.03125c-0.41406-0.058594-0.79688-0.23438-1.0938-0.5-0.32422-0.26562-0.58984-0.58984-0.70703-1.0039l-0.058594-0.14844c-0.089843-0.35547-0.11719-0.70703-0.058593-1.0625 0.089843-0.41406 0.26562-0.76562 0.53125-1.0938 0.29688-0.29688 0.64844-0.5 1.0352-0.62109 0.41406-0.11719 0.82812-0.11719 1.2383 0 0.35547 0.089844 0.70703 0.14844 1.0625 0.17578 23.262 3.2773 46.699 5.0469 70.199 5.3125 23.5-0.26563 46.996-2.0352 70.289-5.3125 0.35547-0.03125 0.70703-0.089844 1.0625-0.17578 0.38281-0.11719 0.76562-0.11719 1.1523 0 0.41406 0.11719 0.76562 0.32422 1.0625 0.62109 0.26562 0.29688 0.44141 0.67969 0.53125 1.0938 0.058594 0.41406 0.03125 0.85547-0.089843 1.2695-0.14844 0.38281-0.41406 0.70703-0.73828 0.94531-0.29688 0.26562-0.67969 0.44141-1.0938 0.5l-0.5625 0.089844-52.398 11.07h-0.03125c-3.7773 0.76562-6.4648 4.1016-6.4648 7.9688v32.914-0.03125c0 1.0938 0.20703 2.1562 0.62109 3.1289l21.168 65.562 0.058593 0.29688v0.03125c0.17578 0.5625 0.14844 1.1797-0.14844 1.7109-0.23438 0.47266-0.62109 0.82812-1.0938 1.0352l-0.26562 0.058593c-0.58984 0.17578-1.2109 0.11719-1.7422-0.14844-0.53125-0.29688-0.94531-0.79688-1.1211-1.3594l-0.14844-0.32422-18.125-51.629-0.23438-0.5c-1.9766-5.2266-7.0859-8.5898-12.664-8.4141-5.5781 0.20703-10.449 3.9258-12.074 9.2695l-0.11719 0.5-16.945 51.129c-0.17578 0.5625-0.5625 1.0625-1.0938 1.3594-0.53125 0.26562-1.1523 0.32422-1.7422 0.14844l-0.29688-0.089843h-0.03125c-0.94531-0.44141-1.4766-1.4766-1.2695-2.4805l22.582-66.625zm-37.934 61.164 22.051-65.062v-25.004l-46.641-9.6523c-6.6992-1.0039-12.34-5.5781-14.699-11.957l-0.17578-0.53125c-2.125-6.3477-0.64844-13.344 3.8672-18.301 4.457-4.9609 11.246-7.1445 17.77-5.6992 22.465 3.1602 45.105 4.8984 67.809 5.1953 22.699-0.29687 45.344-2.0352 67.836-5.1953 4.8984-1.0938 10.066-0.17578 14.258 2.5977 4.2227 2.7734 7.1133 7.1445 8.0586 12.074 0.94531 4.9609-0.17578 10.066-3.1016 14.168-2.9219 4.1328-7.3516 6.8789-12.34 7.6445l-45.699 9.6523v25.094l21.105 65.477c2.9531 9.8008-2.5977 20.164-12.398 23.113-9.6836 2.9219-19.895-2.4492-23.027-12.043l-15.172-42.98-14.082 42.656c-3.0117 9.7695-13.344 15.32-23.145 12.398-0.32422-0.089843-0.62109-0.20703-0.91406-0.32422-9.1211-3.2773-14.168-13.047-11.602-22.406 0.058593-0.29688 0.14844-0.62109 0.26562-0.91406z" fill="#fff" fill-rule="evenodd"/>
</svg>
