<?xml version="1.0" encoding="UTF-8"?>
<svg width="1200pt" height="1200pt" version="1.1" viewBox="0 0 1200 1200" xmlns="http://www.w3.org/2000/svg">
 <path d="m1200 600c0 214.36-114.36 412.44-300 519.62-185.64 107.18-414.36 107.18-600 0-185.64-107.18-300-305.26-300-519.62s114.36-412.44 300-519.62c185.64-107.18 414.36-107.18 600 0 185.64 107.18 300 305.26 300 519.62z" fill="#2562eb"/>
 <path d="m328.77 753.5c19.867-6.1094 41.977-11.102 65.535-15.027-9.5625-42.035-14.523-87.973-14.789-134.02h-102.61c0.97266 56.031 20.164 107.57 51.867 149.05zm67.602-6.4336c-22.082 3.6602-42.863 8.2656-61.637 13.844 24.738 29.875 56.09 53.844 91.805 69.785-12.637-24.59-22.672-52.988-30.168-83.629zm-61.637-307.92c18.773 5.5508 39.559 10.156 61.637 13.816 7.5273-30.641 17.594-58.98 30.168-83.629-35.719 15.941-67.07 39.941-91.805 69.816zm59.57 22.438c-23.559-3.8984-45.637-8.8555-65.535-14.996-31.703 41.418-50.922 92.992-51.895 149.02h102.61c0.29688-45.992 5.2539-91.957 14.82-134.02zm99.016 0.91406c-0.64844-19.188 0.64844-37.992 4.6641-56.324-10.566-23.32-28.223-43.984-59.395-40.707-14.141 25.562-25.27 55.852-33.418 88.855 28.25 4.2812 57.594 6.9648 88.148 8.1758zm32.355 390.08c18.773-36.605 23.438-75.512 20.664-115.51-47.055-0.88672-95.938 1.832-141.25 8.707 8.2656 33.652 19.719 64.414 34.242 90.27 26.895 10.273 56 16.059 86.348 16.531zm293.2-575.76h-48c-5.3125 0-9.7109 4.3672-9.7109 9.6836v47.559c0 5.3125 4.3984 9.6836 9.7109 9.6836h48c5.3125 0 9.6836-4.3672 9.6836-9.6836l-0.03125-47.559c0-5.3125-4.3398-9.6836-9.6523-9.6836zm96.82 109.78h-39.113c-3.8984 0-7.0859 3.1875-7.0859 7.0859v38.73c0 3.8984 3.1875 7.0859 7.0859 7.0859h39.113c3.8984 0 7.0859-3.1875 7.0859-7.0859v-38.73c0-3.9258-3.1875-7.0859-7.0859-7.0859zm-338.6 109.25h-95.41c-10.125 0-18.422 8.2656-18.422 18.422v94.555c0 10.094 8.2656 18.422 18.422 18.422h95.41c10.125 0 18.422-8.3242 18.422-18.422v-94.586c0-10.125-8.2656-18.391-18.422-18.391zm-122.68 108.61h-66.125c0.35547 45.637 5.2266 91.133 14.73 132.64 45.727-6.9648 94.965-9.7109 142.58-8.8555-2.8945-30.375-9.6836-61.254-17.418-92.16h-46.523c-15.027 0-27.277-12.281-27.277-27.219l0.058594-4.3984zm40.68-117.49c-0.58984-5.2266-1.0625-10.449-1.3867-15.645-31.23-1.2109-61.934-3.957-90.688-8.3828-9.5039 41.562-14.406 87.027-14.73 132.66h66.125v-81.359c0-15.027 12.281-27.277 27.277-27.277zm210.8-127.65h-67.129c-8.4141 0-15.293 6.8789-15.293 15.293v66.422c0 8.4141 6.8789 15.293 15.293 15.293h67.129c8.3828 0 15.293-6.8789 15.293-15.293v-66.422c-0.03125-8.4141-6.9375-15.293-15.293-15.293zm23.645 86.613c-2.3633 11.039-12.133 19.246-23.645 19.246h-67.129c-13.285 0-24.148-10.863-24.148-24.148v-66.422c0-4.1016 1.0625-7.9688 2.832-11.336-50.656-18.832-106.8-20.898-159-5.6992 42.301 9.0938 55.023 62.051 61.668 89.68 7.2617 30.289 19.305 32.293 55.23 24.738 27.219-5.668 46.938 15.113 27.867 34.539 0.70703 2.4219 1.1211 5.0195 1.1211 7.7031v94.555c0 5.668-1.7695 10.98-4.7812 15.352 3.5117 9.0312 6.8789 19.484 17.328 14.73 0.058593 0 4.9297-8.5 11.102-19.012 9.9766-17.062 22.051-38.582 22.73-40.293 2.7734-6.9062-1.9492-11.895-6.4336-16.59-8.2344-8.707-15.883-16.828-0.089844-31.824 15.145-14.406 67.895 6.8203 67.602-8.0898-0.089844-4.0742-0.29688-7.4375-0.47266-10.156-0.5-8.2344-0.64844-11.277 2.9219-17.949 6.7891-12.516 21.609-5.6094 36.016 1.1211 4.0156 1.8906 7.9688 3.7188 11.512 5.0195-8.3555-19.777-19.277-38.316-32.234-55.172zm-176.59 405.55v-54.555c-3.0391 18.895-8.6211 37.43-17.359 55.617 5.8438-0.20703 11.633-0.53125 17.359-1.0625zm359.55 50.539h-363.63c-9.2383 0-14.168 11.336-7.4375 18.035 1.918 1.918 4.5469 3.1289 7.4375 3.1289h363.63c9.2695 0 14.23-11.336 7.5-18.066-1.9492-1.8906-4.5742-3.1016-7.5-3.1016zm-12.93-64.031h-337.77v37.727c0 9.5625 7.8516 17.418 17.418 17.418h302.96c9.5625 0 17.418-7.8242 17.418-17.418zm-164.01 23.027c-6.4062-6.4062-16.148 3.3672-9.7422 9.7422 6.4336 6.4062 16.176-3.3359 9.7422-9.7422zm-4.8398-10.863c13.992 0 21.02 17.004 11.129 26.922-9.918 9.8594-26.922 2.8047-26.922-11.16 0-8.707 7.0547-15.762 15.793-15.762zm-49.004-203.75h-33.949c-3.0391 0-5.5195 2.5078-5.5195 5.5508v33.535c0 3.0391 2.5078 5.5195 5.5195 5.5195h33.949c3.0117 0 5.5195-2.4805 5.5195-5.5195v-33.535c-0.03125-3.0391-2.5078-5.5508-5.5195-5.5508zm14.375 26.391v12.754c0 7.9688-6.4648 14.406-14.406 14.406h-33.949c-7.9102 0-14.348-6.4648-14.348-14.406v-12.754h-54.199c-9.5352 0-17.418 7.8516-17.418 17.418v138.98h337.77l0.03125-139.01c0-9.5352-7.8242-17.418-17.418-17.418zm-48.324-35.188h33.949c7.9102 0 14.406 6.4336 14.406 14.406v11.984h77.695c13.168-50.48 10.332-104.14-7.8516-152.59-14.289-2.3906-39.293-20.547-43.867-12.164-2.4219 4.4883-2.2422 6.8203-1.8906 13.168 0.11719 2.6562 0.35547 5.9336 0.47266 10.539 0.64844 29.402-58.449 3.3672-70.375 14.641-9.418 8.9727-4.6641 13.992 0.41406 19.363 6.3477 6.6992 13.047 13.816 8.2344 25.918-0.20703 0.64844-33.594 61.934-38.375 64.117-16.293 7.4102-22.438-2.8945-27.75-15.941-4.4297 3.1875-9.8594 5.0195-15.734 5.0195h-39.734c6.4648 26.066 12.281 52.133 15.586 77.906v-23.762c0-14.438 11.809-26.215 26.215-26.215h54.23v-11.984c0.03125-7.9688 6.4648-14.406 14.375-14.406zm141.7 81.594h-49.328c-5.5195 0-10.035 4.5156-10.035 10.035v48.887c0 5.5195 4.5156 10.035 10.035 10.035h49.328c5.5195 0 10.035-4.5156 10.035-10.035v-48.887c0.03125-5.4922-4.4883-10.035-10.035-10.035zm-49.297-8.8555h49.328c10.422 0 18.895 8.5 18.895 18.895v48.887c0 10.391-8.5 18.895-18.895 18.895h-49.328c-10.422 0-18.895-8.5312-18.895-18.895v-48.887c-0.03125-10.391 8.4414-18.895 18.895-18.895zm-236.07-288.41c-3.0117 21.047-2.5977 42.746-0.11719 65.004h73.152c8.8555 0 16.855 4.25 21.902 11.039 6.9961-9.6836-0.5-20.457-22.555-17.238-21.902 3.2188-35.305 5.0781-45.934-0.82812-7.7031-4.3086-14.465-11.75-18.895-30.641-1.8594-7.5586-4.2227-17.238-7.5586-27.336z" fill="#fff"/>
</svg>
