<?xml version="1.0" encoding="UTF-8"?>
<svg width="1200pt" height="1200pt" version="1.1" viewBox="0 0 1200 1200" xmlns="http://www.w3.org/2000/svg">
 <path d="m1200 600c0 214.36-114.36 412.44-300 519.62-185.64 107.18-414.36 107.18-600 0-185.64-107.18-300-305.26-300-519.62s114.36-412.44 300-519.62c185.64-107.18 414.36-107.18 600 0 185.64 107.18 300 305.26 300 519.62z" fill="#2562eb"/>
 <path d="m251.21 774.4c0 24.707 18.895 43.598 43.598 43.598h203.46v58.133h-14.531c-8.7188 0-14.531 5.8125-14.531 14.531s5.8125 14.531 14.531 14.531h232.53c8.7188 0 14.531-5.8125 14.531-14.531s-5.8125-14.531-14.531-14.531h-14.531v-58.133h203.46c24.707 0 43.598-18.895 43.598-43.598v-72.664h-697.58zm319.73-43.602h58.133c7.2656 0 14.531 5.8125 14.531 14.531 0 7.2656-7.2656 14.531-14.531 14.531h-58.133c-7.2656 0-14.531-7.2656-14.531-14.531-0.003906-8.7148 7.2617-14.531 14.531-14.531z" fill="#fff"/>
 <path d="m905.2 294.81h-610.39c-24.707 0-43.598 18.895-43.598 43.602v334.26h697.58v-334.26c0-24.707-18.895-43.602-43.598-43.602zm-411.29 152.6-29.066 31.973c-2.9062 2.9062-5.8125 4.3594-10.172 4.3594h-14.531v145.33c0 7.2656-7.2656 14.531-14.531 14.531s-14.531-7.2656-14.531-14.531l-0.003906-145.33h-29.066c-7.2656 0-14.531-7.2656-14.531-14.531v-58.133c0-8.7188 7.2656-14.531 14.531-14.531h29.066v-29.066c0-8.7188 7.2656-14.531 14.531-14.531s14.531 5.8125 14.531 14.531v29.066h14.531c4.3594 0 7.2656 1.4531 10.172 4.3594l29.066 26.16c2.9062 2.9062 4.3594 5.8125 4.3594 10.172 0.003906 4.3594-1.4492 7.2656-4.3555 10.172zm145.33 116.26-29.066 31.973c-2.9062 2.9062-5.8125 4.3594-10.176 4.3594h-14.531v29.066c0 7.2656-7.2656 14.531-14.531 14.531s-14.531-7.2656-14.531-14.531v-29.066h-29.066c-7.2656 0-14.531-7.2656-14.531-14.531v-58.133c0-8.7188 7.2656-14.531 14.531-14.531h29.066l-0.003906-145.33c0-8.7188 7.2656-14.531 14.531-14.531s14.531 5.8125 14.531 14.531v145.33h14.531c4.3594 0 7.2656 1.4531 10.172 4.3594l29.066 26.16c2.9062 2.9062 4.3594 5.8125 4.3594 10.172 0.007812 4.3633-1.4453 7.2695-4.3516 10.176zm188.93-87.195-29.066 31.973c-2.9062 2.9062-5.8125 4.3594-10.172 4.3594h-14.531v116.27c0 7.2656-7.2656 14.531-14.531 14.531-7.2656 0-14.531-7.2656-14.531-14.531v-116.27h-29.066c-7.2656 0-14.531-7.2656-14.531-14.531v-58.133c0-8.7188 7.2656-14.531 14.531-14.531h29.066v-58.133c0-8.7188 7.2656-14.531 14.531-14.531 7.2656 0 14.531 5.8125 14.531 14.531v58.133h14.531c4.3594 0 7.2656 1.4531 10.172 4.3594l29.066 26.16c2.9062 2.9062 4.3594 5.8125 4.3594 10.172s-1.4531 7.2656-4.3594 10.172z" fill="#fff"/>
</svg>
