<?xml version="1.0" encoding="UTF-8"?>
<svg width="1200pt" height="1200pt" version="1.1" viewBox="0 0 1200 1200" xmlns="http://www.w3.org/2000/svg">
 <defs>
  <clipPath id="a">
   <path d="m251 759h698v218.86h-698z"/>
  </clipPath>
 </defs>
 <path d="m1200 600c0 214.36-114.36 412.44-300 519.62-185.64 107.18-414.36 107.18-600 0-185.64-107.18-300-305.26-300-519.62s114.36-412.44 300-519.62c185.64-107.18 414.36-107.18 600 0 185.64 107.18 300 305.26 300 519.62z" fill="#2562eb"/>
 <g clip-path="url(#a)">
  <path d="m251.21 832.53c0 24.707 18.895 43.598 43.598 43.598h203.46v72.664h-14.531c-8.7188 0-14.531 5.8125-14.531 14.531s5.8125 14.531 14.531 14.531h232.53c8.7188 0 14.531-5.8125 14.531-14.531s-5.8125-14.531-14.531-14.531h-14.531v-72.664h203.46c24.707 0 43.598-18.895 43.598-43.598v-72.664h-697.58zm319.73-43.598h58.133c7.2656 0 14.531 7.2656 14.531 14.531 0 8.7188-7.2656 14.531-14.531 14.531h-58.133c-7.2656 0-14.531-5.8125-14.531-14.531-0.003906-8.7188 7.2617-14.531 14.531-14.531z" fill="#fff"/>
 </g>
 <path d="m905.2 338.41h-610.39c-24.707 0-43.598 20.348-43.598 43.598v29.066h697.58v-29.066c0-24.707-18.895-43.598-43.598-43.598z" fill="#fff"/>
 <path d="m251.21 730.8h697.58v-290.66h-697.58zm101.73-145.33c0-7.2656 7.2656-14.531 14.531-14.531h15.984c7.2656-56.68 56.68-101.73 114.81-101.73 63.945 0 116.27 52.32 116.27 116.27 0 47.957 39.238 87.199 87.199 87.199 43.598 0 78.477-31.973 85.746-72.664l-13.078-0.007812c-7.2656 0-14.531-5.8125-14.531-14.531v-58.133c0-7.2656 7.2656-14.531 14.531-14.531h58.133c7.2656 0 14.531 7.2656 14.531 14.531v58.133c0 8.7188-7.2656 14.531-14.531 14.531h-14.531c-7.2656 58.133-56.68 101.73-114.81 101.73-63.945 0-116.27-52.32-116.27-116.27 0-47.957-39.238-87.199-87.199-87.199-43.598 0-78.477 31.973-85.746 72.664l11.625 0.007812c7.2656 0 14.531 7.2656 14.531 14.531v58.133c0 8.7188-7.2656 14.531-14.531 14.531h-58.133c-7.2656 0-14.531-5.8125-14.531-14.531z" fill="#fff"/>
</svg>
