<?xml version="1.0" encoding="UTF-8"?>
<svg width="1200pt" height="1200pt" version="1.1" viewBox="0 0 1200 1200" xmlns="http://www.w3.org/2000/svg">
 <path d="m1200 600c0 214.36-114.36 412.44-300 519.62-185.64 107.18-414.36 107.18-600 0-185.64-107.18-300-305.26-300-519.62s114.36-412.44 300-519.62c185.64-107.18 414.36-107.18 600 0 185.64 107.18 300 305.26 300 519.62z" fill="#2562eb"/>
 <path d="m251.21 774.4c0 24.707 18.895 43.598 43.598 43.598h203.46v72.664h-14.531c-8.7188 0-14.531 7.2656-14.531 14.531s5.8125 14.531 14.531 14.531h232.53c7.2656 0 14.531-7.2656 14.531-14.531s-7.2656-14.531-14.531-14.531h-14.531v-72.664h203.46c24.707 0 43.598-18.895 43.598-43.598v-72.664h-697.58zm319.73-43.602h58.133c7.2656 0 14.531 7.2656 14.531 14.531s-7.2656 14.531-14.531 14.531h-58.133c-8.7188 0-14.531-7.2656-14.531-14.531-0.003906-7.2617 5.8086-14.531 14.531-14.531z" fill="#fff"/>
 <path d="m905.2 280.28h-610.39c-24.707 0-43.598 18.891-43.598 43.598v29.066h697.58v-29.066c0-24.707-18.895-43.598-43.598-43.598z" fill="#fff"/>
 <path d="m251.21 672.67h697.58v-290.66h-697.58zm450.52-58.133h-130.8c-8.7188 0-14.531-7.2656-14.531-14.531s5.8125-14.531 14.531-14.531h130.8c7.2656 0 14.531 7.2656 14.531 14.531s-7.2656 14.531-14.531 14.531zm159.86 29.066h-87.199v-87.199h87.199zm-363.32-174.4h348.79c7.2656 0 14.531 7.2656 14.531 14.531s-7.2656 14.531-14.531 14.531l-348.79 0.003906c-8.7188 0-14.531-7.2656-14.531-14.531s5.8125-14.535 14.531-14.535zm-159.86-29.062h87.199v87.199l-87.199-0.003906zm14.531 145.33h130.8c7.2656 0 14.531 7.2656 14.531 14.531s-7.2656 14.531-14.531 14.531l-130.8 0.003906c-8.7188 0-14.531-7.2656-14.531-14.531 0-7.2695 5.8125-14.535 14.531-14.535z" fill="#fff"/>
</svg>
