<?xml version="1.0" encoding="UTF-8"?>
<svg width="1200pt" height="1200pt" version="1.1" viewBox="0 0 1200 1200" xmlns="http://www.w3.org/2000/svg">
 <path d="m1200 600c0 214.36-114.36 412.44-300 519.62-185.64 107.18-414.36 107.18-600 0-185.64-107.18-300-305.26-300-519.62s114.36-412.44 300-519.62c185.64-107.18 414.36-107.18 600 0 185.64 107.18 300 305.26 300 519.62z" fill="#2562eb"/>
 <path d="m700.51 737.54c-21.16 52.898-72.547 91.441-133 91.441-79.352 0-143.59-64.234-143.59-143.59 0-55.922 32.496-104.29 79.352-127.71l-8.3125-46.098c-68.016 28.719-116.38 95.977-116.38 173.81 0 104.29 84.641 188.93 188.93 188.93 60.457 0 114.87-28.719 149.63-73.305-0.75391-1.5117-0.75391-2.2656-1.5117-3.7773z" fill="#fff"/>
 <path d="m856.19 762.48c-3.7773-15.871-20.402-26.449-36.273-21.914l-30.984 7.5586-32.496-130.74c-3.0234-13.602-15.113-22.672-29.473-22.672l-131.49-0.003906-10.578-52.145h86.906c16.625 0 30.23-13.602 30.23-30.23 0-16.625-13.602-30.23-30.23-30.23h-98.242l-11.34-55.918c19.648-9.0703 32.496-27.961 32.496-50.633 0-30.984-24.938-55.922-55.922-55.922-30.984 0-55.922 24.938-55.922 55.922 0 13.602 5.2891 26.449 13.602 36.273l40.809 207.82c5.2891 24.184 17.383 34.762 31.738 34.762h133l34.008 136.79c3.7773 13.602 15.871 22.672 29.473 22.672 2.2656 0 4.5352 0 6.8008-0.75391l60.457-14.359c17.387-3.7773 27.211-20.402 23.43-36.273z" fill="#fff"/>
 <path d="m602.27 560.7c0 12.848 10.578 23.426 23.426 23.426h105.8c8.3125 0 16.625-4.5352 20.402-12.09l51.387-90.688c6.0469-11.336 2.2656-25.695-9.0703-32.496l-6.8008-3.7773-60.457 107.31h-124.69z" fill="#fff"/>
</svg>
