<?xml version="1.0" encoding="UTF-8"?>
<svg width="1200pt" height="1200pt" version="1.1" viewBox="0 0 1200 1200" xmlns="http://www.w3.org/2000/svg">
 <path d="m1200 600c0 214.36-114.36 412.44-300 519.62-185.64 107.18-414.36 107.18-600 0-185.64-107.18-300-305.26-300-519.62s114.36-412.44 300-519.62c185.64-107.18 414.36-107.18 600 0 185.64 107.18 300 305.26 300 519.62z" fill="#2562eb"/>
 <path d="m876.13 280.28h-552.25c-24.707 0-43.598 18.891-43.598 43.598v29.066h639.45v-29.066c0-24.707-18.891-43.598-43.598-43.598z" fill="#fff"/>
 <path d="m280.28 745.33c0 24.707 18.895 43.598 43.598 43.598h203.46c0 7.2656-1.4531 15.984-4.3594 24.707-4.3594 11.625-14.531 18.895-27.613 18.895l-69.758-0.003906c-8.7188 0-14.531 5.8125-14.531 14.531v58.133c0 8.7188 5.8125 14.531 14.531 14.531h348.79c7.2656 0 14.531-5.8125 14.531-14.531v-58.133c0-8.7188-7.2656-14.531-14.531-14.531h-71.211c-13.078 0-23.254-7.2656-27.613-18.895-1.4531-8.7148-2.9062-17.438-2.9062-24.703h203.46c24.707 0 43.598-18.895 43.598-43.598v-72.664h-639.45zm290.66-43.598h58.133c8.7188 0 14.531 5.8125 14.531 14.531s-5.8125 14.531-14.531 14.531h-58.133c-7.2656 0-14.531-5.8125-14.531-14.531-0.003906-8.7188 7.2617-14.531 14.531-14.531z" fill="#fff"/>
 <path d="m280.28 643.6h639.45v-261.59h-639.45zm319.72-232.53c56.68 0 101.73 45.051 101.73 101.73 0 56.68-45.051 101.73-101.73 101.73s-101.73-45.051-101.73-101.73c0-56.68 45.055-101.73 101.73-101.73z" fill="#fff"/>
 <path d="m589.83 552.04c1.4531 1.4531 2.9062 2.9062 4.3594 2.9062s2.9062 1.4531 4.3594 1.4531h1.4531c1.4531 0 4.3594 0 5.8125-1.4531 1.4531 0 2.9062-1.4531 4.3594-2.9062l29.066-29.066c5.8125-5.8125 5.8125-14.531 0-20.348-5.8125-5.8125-14.531-5.8125-20.348 0l-4.3555 4.3633v-23.254c0-8.7188-5.8125-14.531-14.531-14.531s-14.531 5.8125-14.531 14.531v23.254l-4.3594-4.3594c-5.8125-5.8125-14.531-5.8125-20.348 0-5.8125 5.8125-5.8125 14.531 0 20.348z" fill="#fff"/>
</svg>
